{
    "asset" : {
        "generator" : "Khronos glTF Blender I/O v1.1.46",
        "version" : "2.0"
    },
    "scene" : 0,
    "scenes" : [
        {
            "name" : "Scene",
            "nodes" : [
                0,
                1,
                2,
                3,
                4,
                5
            ]
        }
    ],
    "nodes" : [
        {
            "mesh" : 0,
            "name" : "Circle"
        },
        {
            "mesh" : 1,
            "name" : "Circle.001"
        },
        {
            "mesh" : 2,
            "name" : "Circle.004"
        },
        {
            "mesh" : 3,
            "name" : "Cone"
        },
        {
            "mesh" : 4,
            "name" : "Circle.002"
        },
        {
            "mesh" : 5,
            "name" : "Circle.003"
        }
    ],
    "materials" : [
        {
            "doubleSided" : true,
            "emissiveFactor" : [
                0,
                0,
                0
            ],
            "name" : "Material.001",
            "pbrMetallicRoughness" : {
                "baseColorFactor" : [
                    0.14240027964115143,
                    0.04486018791794777,
                    0.018048662692308426,
                    1
                ],
                "metallicFactor" : 0,
                "roughnessFactor" : 0.5
            }
        },
        {
            "doubleSided" : true,
            "emissiveFactor" : [
                0,
                0,
                0
            ],
            "name" : "Material.005",
            "pbrMetallicRoughness" : {
                "baseColorFactor" : [
                    0.8796224594116211,
                    0.3049873113632202,
                    0.08228270709514618,
                    1
                ],
                "metallicFactor" : 0.4333333373069763,
                "roughnessFactor" : 0.4833333194255829
            }
        },
        {
            "doubleSided" : true,
            "emissiveFactor" : [
                0,
                0,
                0
            ],
            "name" : "Material.003",
            "pbrMetallicRoughness" : {
                "baseColorFactor" : [
                    0.800000011920929,
                    0.800000011920929,
                    0.800000011920929,
                    1
                ],
                "metallicFactor" : 1,
                "roughnessFactor" : 0.23333331942558289
            }
        },
        {
            "doubleSided" : true,
            "emissiveFactor" : [
                0,
                0,
                0
            ],
            "name" : "Material.006",
            "pbrMetallicRoughness" : {
                "baseColorFactor" : [
                    0.7612717747688293,
                    0.4393610656261444,
                    0.21510975062847137,
                    1
                ],
                "metallicFactor" : 0,
                "roughnessFactor" : 1
            }
        },
        {
            "doubleSided" : true,
            "emissiveFactor" : [
                0,
                0,
                0
            ],
            "name" : "Material.002",
            "pbrMetallicRoughness" : {
                "baseColorFactor" : [
                    0.800000011920929,
                    0.800000011920929,
                    0.800000011920929,
                    1
                ],
                "metallicFactor" : 1,
                "roughnessFactor" : 0.2666666507720947
            }
        }
    ],
    "meshes" : [
        {
            "name" : "Circle.001",
            "primitives" : [
                {
                    "attributes" : {
                        "POSITION" : 0,
                        "NORMAL" : 1,
                        "TEXCOORD_0" : 2
                    },
                    "indices" : 3,
                    "material" : 0
                }
            ]
        },
        {
            "name" : "Circle.002",
            "primitives" : [
                {
                    "attributes" : {
                        "POSITION" : 4,
                        "NORMAL" : 5,
                        "TEXCOORD_0" : 6
                    },
                    "indices" : 7,
                    "material" : 1
                }
            ]
        },
        {
            "name" : "Circle.005",
            "primitives" : [
                {
                    "attributes" : {
                        "POSITION" : 8,
                        "NORMAL" : 9,
                        "TEXCOORD_0" : 10
                    },
                    "indices" : 11,
                    "material" : 2
                }
            ]
        },
        {
            "name" : "Cone",
            "primitives" : [
                {
                    "attributes" : {
                        "POSITION" : 12,
                        "NORMAL" : 13,
                        "TEXCOORD_0" : 14
                    },
                    "indices" : 15,
                    "material" : 3
                }
            ]
        },
        {
            "name" : "Circle.006",
            "primitives" : [
                {
                    "attributes" : {
                        "POSITION" : 16,
                        "NORMAL" : 17,
                        "TEXCOORD_0" : 18
                    },
                    "indices" : 19,
                    "material" : 4
                }
            ]
        },
        {
            "name" : "Circle.007",
            "primitives" : [
                {
                    "attributes" : {
                        "POSITION" : 20,
                        "NORMAL" : 21,
                        "TEXCOORD_0" : 22
                    },
                    "indices" : 23,
                    "material" : 0
                }
            ]
        }
    ],
    "accessors" : [
        {
            "bufferView" : 0,
            "componentType" : 5126,
            "count" : 2593,
            "max" : [
                3.657472610473633,
                1.0916669368743896,
                3.068974018096924
            ],
            "min" : [
                -2.480454444885254,
                0.6315157413482666,
                -3.068952798843384
            ],
            "type" : "VEC3"
        },
        {
            "bufferView" : 1,
            "componentType" : 5126,
            "count" : 2593,
            "type" : "VEC3"
        },
        {
            "bufferView" : 2,
            "componentType" : 5126,
            "count" : 2593,
            "type" : "VEC2"
        },
        {
            "bufferView" : 3,
            "componentType" : 5123,
            "count" : 15264,
            "type" : "SCALAR"
        },
        {
            "bufferView" : 4,
            "componentType" : 5126,
            "count" : 30834,
            "max" : [
                2.6211228370666504,
                2.453361749649048,
                2.0326004028320312
            ],
            "min" : [
                -1.4441051483154297,
                1.091245412826538,
                -2.032627582550049
            ],
            "type" : "VEC3"
        },
        {
            "bufferView" : 5,
            "componentType" : 5126,
            "count" : 30834,
            "type" : "VEC3"
        },
        {
            "bufferView" : 6,
            "componentType" : 5126,
            "count" : 30834,
            "type" : "VEC2"
        },
        {
            "bufferView" : 7,
            "componentType" : 5123,
            "count" : 130824,
            "type" : "SCALAR"
        },
        {
            "bufferView" : 8,
            "componentType" : 5126,
            "count" : 433,
            "max" : [
                3.001417636871338,
                4.59684944152832,
                0.13239921629428864
            ],
            "min" : [
                0.4547726511955261,
                2.0523111820220947,
                -0.13239972293376923
            ],
            "type" : "VEC3"
        },
        {
            "bufferView" : 9,
            "componentType" : 5126,
            "count" : 433,
            "type" : "VEC3"
        },
        {
            "bufferView" : 10,
            "componentType" : 5126,
            "count" : 433,
            "type" : "VEC2"
        },
        {
            "bufferView" : 11,
            "componentType" : 5123,
            "count" : 1116,
            "type" : "SCALAR"
        },
        {
            "bufferView" : 12,
            "componentType" : 5126,
            "count" : 6400,
            "max" : [
                2.150357246398926,
                3.648845911026001,
                1.2198102474212646
            ],
            "min" : [
                0.7547556757926941,
                2.4451282024383545,
                -0.2549830377101898
            ],
            "type" : "VEC3"
        },
        {
            "bufferView" : 13,
            "componentType" : 5126,
            "count" : 6400,
            "type" : "VEC3"
        },
        {
            "bufferView" : 14,
            "componentType" : 5126,
            "count" : 6400,
            "type" : "VEC2"
        },
        {
            "bufferView" : 15,
            "componentType" : 5123,
            "count" : 9594,
            "type" : "SCALAR"
        },
        {
            "bufferView" : 16,
            "componentType" : 5126,
            "count" : 289,
            "max" : [
                0.7142724990844727,
                4.648835182189941,
                0.11558350175619125
            ],
            "min" : [
                0.4627450704574585,
                1.0612170696258545,
                -0.11556421965360641
            ],
            "type" : "VEC3"
        },
        {
            "bufferView" : 17,
            "componentType" : 5126,
            "count" : 289,
            "type" : "VEC3"
        },
        {
            "bufferView" : 18,
            "componentType" : 5126,
            "count" : 289,
            "type" : "VEC2"
        },
        {
            "bufferView" : 19,
            "componentType" : 5123,
            "count" : 1440,
            "type" : "SCALAR"
        },
        {
            "bufferView" : 20,
            "componentType" : 5126,
            "count" : 1410,
            "max" : [
                3.3868422508239746,
                5.442340850830078,
                0.5171941518783569
            ],
            "min" : [
                2.35247540473938,
                4.367301940917969,
                -0.5171745419502258
            ],
            "type" : "VEC3"
        },
        {
            "bufferView" : 21,
            "componentType" : 5126,
            "count" : 1410,
            "type" : "VEC3"
        },
        {
            "bufferView" : 22,
            "componentType" : 5126,
            "count" : 1410,
            "type" : "VEC2"
        },
        {
            "bufferView" : 23,
            "componentType" : 5123,
            "count" : 7296,
            "type" : "SCALAR"
        }
    ],
    "bufferViews" : [
        {
            "buffer" : 0,
            "byteLength" : 31116,
            "byteOffset" : 0
        },
        {
            "buffer" : 0,
            "byteLength" : 31116,
            "byteOffset" : 31116
        },
        {
            "buffer" : 0,
            "byteLength" : 20744,
            "byteOffset" : 62232
        },
        {
            "buffer" : 0,
            "byteLength" : 30528,
            "byteOffset" : 82976
        },
        {
            "buffer" : 0,
            "byteLength" : 370008,
            "byteOffset" : 113504
        },
        {
            "buffer" : 0,
            "byteLength" : 370008,
            "byteOffset" : 483512
        },
        {
            "buffer" : 0,
            "byteLength" : 246672,
            "byteOffset" : 853520
        },
        {
            "buffer" : 0,
            "byteLength" : 261648,
            "byteOffset" : 1100192
        },
        {
            "buffer" : 0,
            "byteLength" : 5196,
            "byteOffset" : 1361840
        },
        {
            "buffer" : 0,
            "byteLength" : 5196,
            "byteOffset" : 1367036
        },
        {
            "buffer" : 0,
            "byteLength" : 3464,
            "byteOffset" : 1372232
        },
        {
            "buffer" : 0,
            "byteLength" : 2232,
            "byteOffset" : 1375696
        },
        {
            "buffer" : 0,
            "byteLength" : 76800,
            "byteOffset" : 1377928
        },
        {
            "buffer" : 0,
            "byteLength" : 76800,
            "byteOffset" : 1454728
        },
        {
            "buffer" : 0,
            "byteLength" : 51200,
            "byteOffset" : 1531528
        },
        {
            "buffer" : 0,
            "byteLength" : 19188,
            "byteOffset" : 1582728
        },
        {
            "buffer" : 0,
            "byteLength" : 3468,
            "byteOffset" : 1601916
        },
        {
            "buffer" : 0,
            "byteLength" : 3468,
            "byteOffset" : 1605384
        },
        {
            "buffer" : 0,
            "byteLength" : 2312,
            "byteOffset" : 1608852
        },
        {
            "buffer" : 0,
            "byteLength" : 2880,
            "byteOffset" : 1611164
        },
        {
            "buffer" : 0,
            "byteLength" : 16920,
            "byteOffset" : 1614044
        },
        {
            "buffer" : 0,
            "byteLength" : 16920,
            "byteOffset" : 1630964
        },
        {
            "buffer" : 0,
            "byteLength" : 11280,
            "byteOffset" : 1647884
        },
        {
            "buffer" : 0,
            "byteLength" : 14592,
            "byteOffset" : 1659164
        }
    ],
    "buffers" : [
        {
            "byteLength" : 1673756,
            "uri" : "data:application/octet-stream;base64,"
        }
    ]
}
